<?xml version="1.0" encoding="UTF-8" standalone="no"?>
<svg
   xmlns:dc="http://purl.org/dc/elements/1.1/"
   xmlns:cc="http://creativecommons.org/ns#"
   xmlns:rdf="http://www.w3.org/1999/02/22-rdf-syntax-ns#"
   xmlns:svg="http://www.w3.org/2000/svg"
   xmlns="http://www.w3.org/2000/svg"
   xmlns:sodipodi="http://sodipodi.sourceforge.net/DTD/sodipodi-0.dtd"
   xmlns:inkscape="http://www.inkscape.org/namespaces/inkscape"
   inkscape:export-ydpi="96"
   inkscape:export-xdpi="96"
   inkscape:export-filename="C:\Users\jack\Documents\University\Year3\Mobile\logo.png"
   width="1024"
   height="1024"
   viewBox="0 0 270.93333 270.93333"
   version="1.1"
   id="svg8"
   inkscape:version="1.0 (4035a4fb49, 2020-05-01)"
   sodipodi:docname="logo.svg">
  <defs
     id="defs2">
    <inkscape:path-effect
       center_point="115.01877,118.04296"
       end_point="115.01877,210.65385"
       start_point="115.01877,25.432075"
       effect="mirror_symmetry"
       id="path-effect912"
       is_visible="true"
       lpeversion="1"
       mode="free"
       discard_orig_path="false"
       fuse_paths="false"
       oposite_fuse="false"
       split_items="true" />
  </defs>
  <sodipodi:namedview
     id="base"
     pagecolor="#ffffff"
     bordercolor="#666666"
     borderopacity="1.0"
     inkscape:pageopacity="0.0"
     inkscape:pageshadow="2"
     inkscape:zoom="0.49497475"
     inkscape:cx="7.5571651"
     inkscape:cy="451.24047"
     inkscape:document-units="px"
     inkscape:current-layer="layer1"
     inkscape:document-rotation="0"
     showgrid="false"
     units="px"
     inkscape:snap-others="true"
     inkscape:object-nodes="true"
     inkscape:snap-to-guides="true"
     showguides="true"
     inkscape:guide-bbox="true"
     inkscape:window-width="1920"
     inkscape:window-height="1051"
     inkscape:window-x="-9"
     inkscape:window-y="-9"
     inkscape:window-maximized="1">
    <sodipodi:guide
       position="0,270.93333"
       orientation="0,1024"
       id="guide835" />
    <sodipodi:guide
       position="270.93333,270.93333"
       orientation="1024,0"
       id="guide837" />
    <sodipodi:guide
       position="270.93333,0"
       orientation="0,-1024"
       id="guide839" />
    <sodipodi:guide
       position="0,0"
       orientation="-1024,0"
       id="guide841" />
  </sodipodi:namedview>
  <metadata
     id="metadata5">
    <rdf:RDF>
      <cc:Work
         rdf:about="">
        <dc:format>image/svg+xml</dc:format>
        <dc:type
           rdf:resource="http://purl.org/dc/dcmitype/StillImage" />
        <dc:title />
      </cc:Work>
    </rdf:RDF>
  </metadata>
  <g
     inkscape:label="Layer 1"
     inkscape:groupmode="layer"
     id="layer1">
    <path
       id="path833"
       style="fill:#6750a4;fill-opacity:1;stroke:none;stroke-width:3.77998;stroke-linecap:square"
       d="M 512,112 A 400.00063,399.99961 0 0 0 112,511.99805 400.00063,399.99961 0 0 0 512,912 400.00063,399.99961 0 0 0 710.77734,859.11133 L 660.8457,771.92188 A 299.52574,299.52499 0 0 1 512,811.52539 299.52574,299.52499 0 0 1 212.47461,511.99805 299.52574,299.52499 0 0 1 511.23047,212.47461 a 299.52574,299.52499 0 0 1 0.76953,0 299.52574,299.52499 0 0 1 148.84766,39.60156 l 49.92968,-87.18945 A 400.00063,399.99961 0 0 0 512,112 Z"
       transform="scale(0.26458333)" />
    <path
       id="path856"
       style="fill:#d0bcff;fill-opacity:1;stroke:none;stroke-width:0;stroke-linecap:square;stroke-miterlimit:4;stroke-dasharray:none;paint-order:stroke fill markers"
       d="m 512,212 a 300,300 0 0 0 -149.08203,39.66602 l 49.69336,86.77734 A 199.99999,200.00001 0 0 1 511.79102,312 199.99999,200.00001 0 0 1 512,312 199.99999,200.00001 0 0 1 712,512 199.99999,200.00001 0 0 1 512,712 199.99999,200.00001 0 0 1 412.61133,685.55469 l -49.69336,86.77929 A 300,300 0 0 0 512,812 300,300 0 0 0 812,512 300,300 0 0 0 512,212 Z"
       transform="scale(0.26458333)" />
    <path
       id="path1527"
       d="m 133.27619,184.50908 1.09524,-21.00427 a 2.3121731,2.3121731 0 0 0 -2.7016,-2.38519 l -20.9069,3.67514 2.82328,-7.78838 a 1.5820132,1.5820132 0 0 0 -0.48678,-1.77672 l -22.902686,-18.54606 5.159791,-2.40953 a 1.5820132,1.5820132 0 0 0 0.82752,-1.92276 l -4.526991,-13.9217 13.191556,2.79893 a 1.5820132,1.5820132 0 0 0 1.77674,-0.92486 l 2.55555,-6.01166 10.29525,11.04976 a 1.5820132,1.5820132 0 0 0 2.70159,-1.3873 l -4.96508,-25.604283 7.95874,4.600013 a 1.5820132,1.5820132 0 0 0 2.21481,-0.65715 l 8.08044,-15.868808 8.08046,15.868808 a 1.5820132,1.5820132 0 0 0 2.2148,0.65715 l 7.95875,-4.600013 -4.96509,25.604283 a 1.5820132,1.5820132 0 0 0 2.70159,1.3873 l 10.29526,-11.04976 2.55556,6.01166 a 1.5820132,1.5820132 0 0 0 1.77673,0.92486 l 13.19155,-2.79893 -4.527,13.9217 a 1.5820132,1.5820132 0 0 0 0.82751,1.92276 l 5.15981,2.40953 -22.90268,18.54606 a 1.5820132,1.5820132 0 0 0 -0.48678,1.77672 l 2.82328,7.78838 -20.90691,-3.67514 a 2.3121731,2.3121731 0 0 0 -2.7016,2.38519 l 1.09525,21.00427 z"
       fill="#ff0000"
       style="fill:#6750a4;fill-opacity:1;stroke-width:0.0426747" />
  </g>
</svg>
